<mxfile host="app.diagrams.net" modified="2023-04-14T09:25:38.811Z" agent="Mozilla/5.0 (Windows NT 10.0; Win64; x64) AppleWebKit/537.36 (KHTML, like Gecko) Chrome/112.0.0.0 Safari/537.36" version="21.1.4" etag="8gYvSnMWcNNzq_IIw17p" type="github">
  <diagram name="Page-1" id="_nDo7idwYP4VVH1AD_jK">
    <mxGraphModel>
      <root>
        <mxCell id="0" />
        <mxCell id="1" parent="0" />
      </root>
    </mxGraphModel>
  </diagram>
</mxfile>
